<svg width="32" height="32" viewBox="0 0 32 32" xmlns="http://www.w3.org/2000/svg">
  <rect width="32" height="32" rx="6" fill="#0d0d14"/>
  <rect x="4" y="20" width="5" height="5" rx="1" fill="#af8fff"/>
  <rect x="4" y="14" width="5" height="5" rx="1" fill="#af8fff"/>
  <rect x="4" y="8" width="5" height="5" rx="1" fill="#af8fff"/>
  <rect x="10" y="5" width="5" height="5" rx="1" fill="#af8fff"/>
  <rect x="16" y="8" width="5" height="5" rx="1" fill="#5fafff"/>
  <rect x="16" y="14" width="5" height="5" rx="1" fill="#5fafff"/>
  <rect x="16" y="20" width="5" height="5" rx="1" fill="#5fafff"/>
  <rect x="22" y="5" width="5" height="5" rx="1" fill="#7ec87e"/>
  <rect x="22" y="11" width="5" height="5" rx="1" fill="#7ec87e"/>
  <rect x="22" y="17" width="5" height="5" rx="1" fill="#7ec87e"/>
  <rect x="22" y="23" width="5" height="5" rx="1" fill="#7ec87e"/>
</svg>
