<svg width="560" height="90" viewBox="0 0 560 90" xmlns="http://www.w3.org/2000/svg">
  <rect x="0" y="0" width="560" height="90" rx="8" fill="#0d0d14"/>
  <g transform="translate(20, 15)">
    <!-- A - violet -->
    <rect x="0" y="48" width="12" height="12" rx="2.5" fill="#af8fff"/>
    <rect x="0" y="34" width="12" height="12" rx="2.5" fill="#af8fff"/>
    <rect x="0" y="20" width="12" height="12" rx="2.5" fill="#af8fff"/>
    <rect x="0" y="6" width="12" height="12" rx="2.5" fill="#af8fff"/>
    <rect x="14" y="0" width="12" height="12" rx="2.5" fill="#af8fff"/>
    <rect x="28" y="0" width="12" height="12" rx="2.5" fill="#af8fff"/>
    <rect x="42" y="0" width="12" height="12" rx="2.5" fill="#af8fff"/>
    <rect x="56" y="6" width="12" height="12" rx="2.5" fill="#af8fff"/>
    <rect x="56" y="20" width="12" height="12" rx="2.5" fill="#af8fff"/>
    <rect x="56" y="34" width="12" height="12" rx="2.5" fill="#af8fff"/>
    <rect x="56" y="48" width="12" height="12" rx="2.5" fill="#af8fff"/>
    <rect x="14" y="28" width="12" height="12" rx="2.5" fill="#af8fff" opacity="0.35"/>
    <rect x="28" y="28" width="12" height="12" rx="2.5" fill="#af8fff" opacity="0.35"/>
    <rect x="42" y="28" width="12" height="12" rx="2.5" fill="#af8fff" opacity="0.35"/>
    <!-- P - blue -->
    <rect x="78" y="48" width="12" height="12" rx="2.5" fill="#5fafff"/>
    <rect x="78" y="34" width="12" height="12" rx="2.5" fill="#5fafff"/>
    <rect x="78" y="20" width="12" height="12" rx="2.5" fill="#5fafff"/>
    <rect x="78" y="6" width="12" height="12" rx="2.5" fill="#5fafff"/>
    <rect x="78" y="0" width="12" height="12" rx="2.5" fill="#5fafff"/>
    <rect x="92" y="0" width="12" height="12" rx="2.5" fill="#5fafff"/>
    <rect x="106" y="0" width="12" height="12" rx="2.5" fill="#5fafff"/>
    <rect x="120" y="6" width="12" height="12" rx="2.5" fill="#5fafff"/>
    <rect x="92" y="22" width="12" height="12" rx="2.5" fill="#5fafff" opacity="0.35"/>
    <rect x="106" y="22" width="12" height="12" rx="2.5" fill="#5fafff" opacity="0.35"/>
    <rect x="120" y="22" width="12" height="12" rx="2.5" fill="#5fafff" opacity="0.35"/>
    <!-- D - green -->
    <rect x="142" y="48" width="12" height="12" rx="2.5" fill="#7ec87e"/>
    <rect x="142" y="34" width="12" height="12" rx="2.5" fill="#7ec87e"/>
    <rect x="142" y="20" width="12" height="12" rx="2.5" fill="#7ec87e"/>
    <rect x="142" y="6" width="12" height="12" rx="2.5" fill="#7ec87e"/>
    <rect x="142" y="0" width="12" height="12" rx="2.5" fill="#7ec87e"/>
    <rect x="156" y="0" width="12" height="12" rx="2.5" fill="#7ec87e"/>
    <rect x="170" y="0" width="12" height="12" rx="2.5" fill="#7ec87e"/>
    <rect x="184" y="6" width="12" height="12" rx="2.5" fill="#7ec87e"/>
    <rect x="184" y="20" width="12" height="12" rx="2.5" fill="#7ec87e"/>
    <rect x="184" y="34" width="12" height="12" rx="2.5" fill="#7ec87e"/>
    <rect x="156" y="48" width="12" height="12" rx="2.5" fill="#7ec87e"/>
    <rect x="170" y="48" width="12" height="12" rx="2.5" fill="#7ec87e"/>
    <!-- Text -->
    <text x="216" y="28" font-family="'JetBrains Mono', 'Fira Code', 'Cascadia Code', monospace" font-size="32" font-weight="700" fill="#af8fff" letter-spacing="3">APD</text>
    <text x="216" y="50" font-family="'Inter', 'Segoe UI', sans-serif" font-size="11" fill="#4a4a5a" font-weight="400" letter-spacing="2">agent pipeline development</text>
  </g>
</svg>
